<?xml version="1.0" encoding="utf-8"?>
<!-- Generator: Adobe Illustrator 16.0.0, SVG Export Plug-In . SVG Version: 6.00 Build 0)  -->
<!DOCTYPE svg PUBLIC "-//W3C//DTD SVG 1.1//EN" "http://www.w3.org/Graphics/SVG/1.1/DTD/svg11.dtd">
<svg version="1.1" id="Layer_1" xmlns="http://www.w3.org/2000/svg" xmlns:xlink="http://www.w3.org/1999/xlink" x="0px" y="0px"
	 width="159.5px" height="70.827px" viewBox="0 0 159.5 70.827" enable-background="new 0 0 159.5 70.827" xml:space="preserve">
<g>
	<path fill="#004D43" d="M78.787,64.903c1.036,0,1.934,0.28,2.692,0.838c0.76,0.558,1.139,1.255,1.139,2.091
		c0,0.86-0.382,1.575-1.148,2.143c-0.765,0.568-1.691,0.852-2.778,0.852c-1.099,0-2.022-0.277-2.77-0.831s-1.121-1.271-1.121-2.152
		c0-0.899,0.432-1.633,1.294-2.201C76.847,65.15,77.743,64.903,78.787,64.903z M78.675,65.208c-0.714,0-1.287,0.189-1.719,0.564
		c-0.538,0.468-0.806,1.153-0.806,2.056c0,0.924,0.278,1.636,0.835,2.134c0.428,0.379,0.993,0.568,1.695,0.568
		c0.749,0,1.368-0.208,1.856-0.623c0.489-0.415,0.733-1.07,0.733-1.963c0-0.97-0.269-1.692-0.807-2.168
		C80.032,65.398,79.436,65.208,78.675,65.208z"/>
	<path fill="#004D43" d="M85.549,65.342v2.227h1.454c0.333,0,0.578-0.052,0.733-0.157c0.155-0.104,0.258-0.311,0.309-0.621h0.217
		v1.917h-0.217c-0.004-0.22-0.044-0.381-0.121-0.484c-0.076-0.104-0.182-0.181-0.318-0.232c-0.135-0.051-0.336-0.078-0.603-0.078
		h-1.454v1.78c0,0.287,0.026,0.476,0.077,0.568c0.04,0.07,0.122,0.129,0.248,0.18c0.172,0.066,0.353,0.1,0.541,0.1h0.289v0.155
		h-3.425v-0.155h0.282c0.33,0,0.569-0.067,0.718-0.204c0.095-0.089,0.142-0.304,0.142-0.644v-3.66c0-0.287-0.026-0.476-0.077-0.568
		c-0.04-0.069-0.12-0.129-0.242-0.18c-0.168-0.067-0.349-0.1-0.542-0.1h-0.282v-0.155h5.938l0.077,1.245h-0.206
		c-0.103-0.264-0.221-0.459-0.356-0.582c-0.136-0.125-0.302-0.215-0.5-0.27c-0.198-0.056-0.505-0.083-0.921-0.083H85.549z"/>
	<path fill="#004D43" d="M99.22,64.903v1.959h-0.217c-0.071-0.376-0.197-0.675-0.379-0.898c-0.183-0.223-0.443-0.4-0.781-0.53
		c-0.337-0.131-0.686-0.196-1.047-0.196c-0.408,0-0.746,0.088-1.012,0.265c-0.268,0.177-0.401,0.378-0.401,0.604
		c0,0.172,0.084,0.33,0.253,0.472c0.243,0.209,0.822,0.488,1.737,0.836c0.745,0.284,1.254,0.502,1.527,0.653
		c0.273,0.152,0.482,0.331,0.629,0.537s0.221,0.422,0.221,0.647c0,0.429-0.235,0.799-0.704,1.109
		c-0.468,0.311-1.072,0.466-1.81,0.466c-0.231,0-0.449-0.012-0.654-0.037c-0.121-0.014-0.373-0.065-0.756-0.153
		c-0.382-0.087-0.625-0.131-0.727-0.131c-0.098,0-0.176,0.021-0.233,0.063c-0.057,0.041-0.099,0.128-0.126,0.258h-0.217v-1.942
		h0.217c0.102,0.406,0.239,0.71,0.413,0.913c0.172,0.202,0.436,0.369,0.791,0.503c0.355,0.133,0.745,0.2,1.168,0.2
		c0.49,0,0.878-0.092,1.162-0.275c0.285-0.184,0.427-0.401,0.427-0.652c0-0.139-0.054-0.28-0.163-0.422
		c-0.107-0.142-0.275-0.273-0.503-0.396c-0.152-0.083-0.571-0.262-1.253-0.532c-0.683-0.272-1.168-0.488-1.457-0.65
		c-0.289-0.161-0.507-0.339-0.657-0.534c-0.148-0.195-0.223-0.41-0.223-0.644c0-0.407,0.22-0.756,0.659-1.051
		c0.439-0.293,0.998-0.44,1.677-0.44c0.424,0,0.873,0.074,1.348,0.221c0.22,0.07,0.375,0.105,0.465,0.105
		c0.102,0,0.186-0.021,0.25-0.064c0.065-0.043,0.117-0.131,0.156-0.262H99.22z"/>
	<path fill="#004D43" d="M107.391,65.033l0.089,1.328h-0.224c-0.043-0.233-0.102-0.401-0.176-0.501
		c-0.122-0.162-0.284-0.281-0.486-0.357c-0.202-0.077-0.468-0.115-0.797-0.115h-1.124v4.328c0,0.349,0.052,0.566,0.159,0.652
		c0.149,0.117,0.378,0.175,0.688,0.175h0.277v0.155h-3.384v-0.155h0.282c0.338,0,0.577-0.072,0.718-0.217
		c0.086-0.089,0.129-0.292,0.129-0.61v-4.328h-0.959c-0.373,0-0.638,0.02-0.794,0.059c-0.204,0.053-0.379,0.154-0.524,0.305
		s-0.231,0.354-0.259,0.61h-0.224l0.094-1.328H107.391z"/>
	<path fill="#004D43" d="M107.663,69.888c0.184,0,0.338,0.045,0.465,0.136c0.125,0.09,0.188,0.199,0.188,0.327
		c0,0.128-0.064,0.237-0.192,0.328c-0.127,0.091-0.282,0.136-0.461,0.136c-0.181,0-0.335-0.045-0.462-0.136
		c-0.127-0.09-0.191-0.199-0.191-0.328c0-0.131,0.064-0.241,0.191-0.33S107.481,69.888,107.663,69.888z"/>
	<path fill="#004D43" d="M111.323,65.188v-0.155h3.419v0.155h-0.289c-0.326,0-0.562,0.068-0.712,0.205
		c-0.094,0.088-0.141,0.303-0.141,0.643v2.77c0,0.426-0.066,0.771-0.197,1.037c-0.132,0.264-0.358,0.495-0.68,0.691
		c-0.322,0.196-0.71,0.294-1.165,0.294c-0.369,0-0.659-0.064-0.872-0.194c-0.211-0.129-0.317-0.277-0.317-0.444
		c0-0.136,0.049-0.24,0.147-0.309c0.13-0.086,0.281-0.13,0.454-0.13c0.125,0,0.238,0.03,0.338,0.088
		c0.1,0.058,0.227,0.214,0.379,0.468c0.09,0.15,0.206,0.225,0.348,0.225c0.106,0,0.206-0.046,0.297-0.138
		c0.092-0.091,0.139-0.254,0.139-0.489v-3.868c0-0.287-0.026-0.476-0.077-0.568c-0.04-0.069-0.122-0.129-0.248-0.18
		c-0.169-0.067-0.347-0.1-0.535-0.1H111.323z"/>
	<path fill="#004D43" d="M119.902,68.801h-3.09l-0.541,0.894c-0.133,0.22-0.2,0.384-0.2,0.493c0,0.086,0.059,0.162,0.174,0.228
		c0.116,0.065,0.366,0.108,0.751,0.127v0.155h-2.514v-0.155c0.333-0.042,0.549-0.096,0.647-0.163c0.2-0.133,0.421-0.405,0.666-0.814
		l2.807-4.663h0.206l2.778,4.713c0.224,0.379,0.427,0.625,0.609,0.737c0.183,0.113,0.437,0.176,0.762,0.189v0.155h-3.148v-0.155
		c0.318-0.01,0.533-0.048,0.644-0.113c0.112-0.063,0.168-0.141,0.168-0.233c0-0.122-0.078-0.316-0.235-0.58L119.902,68.801z
		 M119.737,68.492l-1.354-2.29l-1.389,2.29H119.737z"/>
	<path fill="#004D43" d="M128.39,70.698l-3.084-4.768v3.785c0,0.349,0.053,0.566,0.159,0.652c0.145,0.117,0.374,0.175,0.688,0.175
		h0.283v0.155h-2.778v-0.155h0.283c0.337,0,0.577-0.072,0.717-0.217c0.087-0.089,0.13-0.292,0.13-0.61v-3.701
		c0-0.25-0.04-0.432-0.118-0.543c-0.055-0.081-0.156-0.148-0.303-0.202c-0.146-0.054-0.383-0.081-0.709-0.081v-0.155h2.26
		l2.896,4.433l2.849-4.433h2.26v0.155h-0.277c-0.341,0-0.583,0.072-0.724,0.216c-0.087,0.089-0.13,0.293-0.13,0.61v3.701
		c0,0.349,0.055,0.566,0.166,0.652c0.145,0.117,0.375,0.175,0.688,0.175h0.277v0.155h-3.39v-0.155h0.282
		c0.341,0,0.58-0.072,0.718-0.217c0.086-0.089,0.129-0.292,0.129-0.61v-3.785l-3.078,4.768H128.39z"/>
	<path fill="#004D43" d="M137.231,65.342v2.239h1.754c0.455,0,0.759-0.049,0.912-0.146c0.203-0.127,0.317-0.354,0.34-0.677h0.219
		v1.972h-0.219c-0.055-0.275-0.109-0.452-0.165-0.531c-0.071-0.097-0.186-0.174-0.347-0.229s-0.408-0.084-0.741-0.084h-1.754v1.867
		c0,0.251,0.016,0.404,0.047,0.458c0.032,0.054,0.086,0.097,0.165,0.129c0.079,0.032,0.228,0.048,0.448,0.048h1.354
		c0.452,0,0.779-0.022,0.983-0.067c0.204-0.044,0.4-0.132,0.589-0.263c0.244-0.173,0.492-0.433,0.747-0.781h0.236l-0.689,1.421
		h-6.15v-0.155h0.282c0.188,0,0.367-0.032,0.536-0.096c0.125-0.044,0.21-0.111,0.256-0.2c0.045-0.089,0.067-0.271,0.067-0.547v-3.68
		c0-0.359-0.05-0.581-0.152-0.665c-0.142-0.11-0.377-0.166-0.707-0.166h-0.282v-0.155h6.15l0.088,1.241h-0.23
		c-0.082-0.298-0.172-0.503-0.273-0.614c-0.1-0.112-0.248-0.197-0.444-0.256c-0.157-0.042-0.435-0.062-0.83-0.062H137.231z"/>
	<path fill="#004D43" d="M147.773,64.903v1.959h-0.217c-0.07-0.376-0.197-0.675-0.38-0.898c-0.182-0.223-0.442-0.4-0.779-0.53
		c-0.338-0.131-0.688-0.196-1.048-0.196c-0.408,0-0.746,0.088-1.012,0.265c-0.266,0.177-0.4,0.378-0.4,0.604
		c0,0.172,0.085,0.33,0.253,0.472c0.244,0.209,0.823,0.488,1.736,0.836c0.746,0.284,1.255,0.502,1.528,0.653
		c0.272,0.152,0.483,0.331,0.629,0.537c0.147,0.206,0.221,0.422,0.221,0.647c0,0.429-0.234,0.799-0.704,1.109
		c-0.469,0.311-1.071,0.466-1.81,0.466c-0.231,0-0.449-0.012-0.653-0.037c-0.122-0.014-0.373-0.065-0.756-0.153
		c-0.382-0.087-0.625-0.131-0.727-0.131c-0.098,0-0.176,0.021-0.232,0.063c-0.058,0.041-0.099,0.128-0.127,0.258h-0.217v-1.942
		h0.217c0.103,0.406,0.24,0.71,0.412,0.913c0.173,0.202,0.437,0.369,0.792,0.503c0.355,0.133,0.744,0.2,1.168,0.2
		c0.49,0,0.878-0.092,1.163-0.275c0.284-0.184,0.426-0.401,0.426-0.652c0-0.139-0.054-0.28-0.162-0.422s-0.275-0.273-0.502-0.396
		c-0.154-0.083-0.572-0.262-1.254-0.532c-0.683-0.272-1.169-0.488-1.458-0.65c-0.287-0.161-0.507-0.339-0.656-0.534
		c-0.147-0.195-0.223-0.41-0.223-0.644c0-0.407,0.219-0.756,0.659-1.051c0.44-0.293,0.999-0.44,1.678-0.44
		c0.423,0,0.873,0.074,1.347,0.221c0.22,0.07,0.375,0.105,0.465,0.105c0.103,0,0.186-0.021,0.25-0.064
		c0.064-0.043,0.117-0.131,0.156-0.262H147.773z"/>
	<path fill="#004D43" d="M150.037,67.102l-0.087-0.28c0.31-0.365,0.5-0.673,0.572-0.928c0.049-0.181,0.042-0.377-0.026-0.588
		c-0.038-0.123-0.087-0.208-0.147-0.254c-0.063-0.046-0.122-0.06-0.174-0.043c-0.041,0.013-0.091,0.043-0.149,0.093
		c-0.087,0.067-0.16,0.11-0.224,0.129c-0.15,0.047-0.302,0.03-0.455-0.053c-0.154-0.084-0.258-0.214-0.316-0.393
		c-0.062-0.198-0.052-0.372,0.028-0.52c0.11-0.201,0.273-0.334,0.49-0.403c0.251-0.079,0.511-0.038,0.783,0.124
		c0.271,0.161,0.458,0.409,0.563,0.744c0.148,0.469,0.115,0.948-0.096,1.438C150.658,66.492,150.404,66.803,150.037,67.102z"/>
	<path fill="#004D43" d="M143.116,35.744l-0.178-0.505c0.587-0.756,1.153-1.763,1.28-2.3c0.087-0.382,0.061-0.8-0.083-1.253
		c-0.081-0.263-0.184-0.446-0.304-0.549c-0.126-0.101-0.242-0.134-0.344-0.103c-0.081,0.025-0.177,0.089-0.29,0.189
		c-0.165,0.137-0.308,0.225-0.433,0.263c-0.291,0.091-0.59,0.045-0.898-0.138c-0.307-0.186-0.519-0.47-0.641-0.853
		c-0.132-0.426-0.125-0.794,0.026-1.104c0.203-0.42,0.519-0.696,0.942-0.83c0.488-0.153,1.102-0.097,1.643,0.262
		c0.542,0.358,0.825,0.942,1.052,1.658c0.316,1.005,0.28,2.023-0.109,3.053C144.52,34.215,143.82,35.129,143.116,35.744z"/>
	<path fill="#004D43" d="M156.709,64.903v1.959h-0.218c-0.071-0.376-0.198-0.675-0.38-0.898c-0.182-0.223-0.442-0.4-0.779-0.53
		c-0.338-0.131-0.687-0.196-1.048-0.196c-0.408,0-0.745,0.088-1.012,0.265c-0.266,0.177-0.4,0.378-0.4,0.604
		c0,0.172,0.084,0.33,0.253,0.472c0.243,0.209,0.822,0.488,1.736,0.836c0.746,0.284,1.255,0.502,1.528,0.653
		c0.272,0.152,0.483,0.331,0.63,0.537s0.22,0.422,0.22,0.647c0,0.429-0.234,0.799-0.703,1.109c-0.469,0.311-1.072,0.466-1.81,0.466
		c-0.232,0-0.45-0.012-0.653-0.037c-0.122-0.014-0.374-0.065-0.756-0.153c-0.383-0.087-0.625-0.131-0.727-0.131
		c-0.098,0-0.176,0.021-0.232,0.063c-0.057,0.041-0.1,0.128-0.127,0.258h-0.218v-1.942h0.218c0.103,0.406,0.24,0.71,0.412,0.913
		c0.172,0.202,0.436,0.369,0.792,0.503c0.354,0.133,0.744,0.2,1.168,0.2c0.49,0,0.878-0.092,1.163-0.275
		c0.284-0.184,0.427-0.401,0.427-0.652c0-0.139-0.055-0.28-0.163-0.422s-0.275-0.273-0.502-0.396
		c-0.154-0.083-0.571-0.262-1.254-0.532c-0.683-0.272-1.168-0.488-1.457-0.65c-0.288-0.161-0.506-0.339-0.655-0.534
		c-0.15-0.195-0.224-0.41-0.224-0.644c0-0.407,0.219-0.756,0.659-1.051c0.439-0.293,0.999-0.44,1.677-0.44
		c0.424,0,0.873,0.074,1.348,0.221c0.22,0.07,0.375,0.105,0.465,0.105c0.103,0,0.186-0.021,0.25-0.064
		c0.065-0.043,0.117-0.131,0.157-0.262H156.709z"/>
	<path fill="#004D43" d="M72.626,20.215v1.95h1.171c0.304,0,0.507-0.043,0.609-0.127c0.137-0.112,0.212-0.308,0.228-0.589h0.146
		v1.717h-0.146c-0.037-0.24-0.073-0.394-0.11-0.461c-0.047-0.085-0.125-0.152-0.232-0.201c-0.107-0.048-0.272-0.072-0.495-0.072
		h-1.171v1.627c0,0.218,0.01,0.35,0.031,0.397c0.021,0.048,0.057,0.086,0.11,0.113c0.053,0.028,0.152,0.042,0.299,0.042h0.904
		c0.301,0,0.521-0.02,0.657-0.059s0.267-0.116,0.393-0.229c0.163-0.15,0.329-0.377,0.5-0.68h0.157l-0.46,1.237h-4.107v-0.135h0.188
		c0.126,0,0.246-0.028,0.358-0.084c0.084-0.039,0.141-0.097,0.171-0.174s0.045-0.237,0.045-0.477v-3.205
		c0-0.313-0.034-0.506-0.102-0.579c-0.095-0.097-0.251-0.146-0.472-0.146h-0.188v-0.135h4.107l0.059,1.081h-0.153
		c-0.055-0.259-0.116-0.437-0.183-0.534c-0.066-0.097-0.166-0.171-0.296-0.222c-0.105-0.036-0.29-0.054-0.554-0.054H72.626z"/>
	<path fill="#004D43" d="M81.12,19.833v1.707h-0.203c-0.065-0.328-0.183-0.588-0.352-0.783c-0.17-0.193-0.412-0.347-0.724-0.462
		c-0.314-0.114-0.638-0.17-0.973-0.17c-0.379,0-0.692,0.077-0.939,0.231c-0.249,0.154-0.372,0.329-0.372,0.525
		c0,0.151,0.079,0.288,0.235,0.412c0.226,0.181,0.763,0.424,1.612,0.728c0.692,0.247,1.165,0.437,1.418,0.569
		c0.253,0.133,0.449,0.289,0.585,0.468c0.137,0.18,0.205,0.367,0.205,0.564c0,0.374-0.218,0.696-0.653,0.966
		c-0.435,0.271-0.995,0.406-1.68,0.406c-0.215,0-0.417-0.011-0.606-0.033c-0.113-0.012-0.347-0.057-0.702-0.133
		c-0.356-0.077-0.581-0.115-0.675-0.115c-0.091,0-0.164,0.019-0.216,0.056c-0.053,0.036-0.092,0.111-0.118,0.226h-0.203V23.3h0.203
		c0.095,0.354,0.222,0.619,0.382,0.795s0.405,0.321,0.735,0.438c0.33,0.116,0.691,0.175,1.085,0.175
		c0.455,0,0.815-0.081,1.079-0.241c0.265-0.16,0.396-0.349,0.396-0.567c0-0.121-0.05-0.244-0.15-0.368
		c-0.1-0.123-0.256-0.239-0.467-0.345c-0.142-0.073-0.53-0.228-1.164-0.464c-0.634-0.236-1.085-0.425-1.353-0.566
		c-0.268-0.14-0.471-0.295-0.61-0.466c-0.138-0.169-0.207-0.356-0.207-0.56c0-0.355,0.204-0.659,0.612-0.916
		c0.408-0.255,0.927-0.384,1.558-0.384c0.393,0,0.811,0.064,1.251,0.193c0.204,0.06,0.348,0.091,0.432,0.091
		c0.095,0,0.172-0.019,0.232-0.056c0.06-0.037,0.108-0.113,0.145-0.228H81.12z"/>
	<path fill="#004D43" d="M86.828,19.945l0.067,1.157h-0.17c-0.033-0.203-0.078-0.349-0.134-0.436
		c-0.092-0.141-0.215-0.245-0.369-0.311c-0.154-0.067-0.355-0.101-0.607-0.101h-0.855v3.77c0,0.303,0.041,0.493,0.121,0.568
		c0.114,0.102,0.288,0.153,0.523,0.153h0.21v0.135H83.04v-0.135h0.215c0.257,0,0.439-0.063,0.546-0.189
		c0.066-0.078,0.099-0.255,0.099-0.532v-3.77H83.17c-0.284,0-0.485,0.017-0.605,0.051c-0.155,0.046-0.288,0.135-0.398,0.265
		c-0.111,0.131-0.176,0.309-0.197,0.531H81.8l0.072-1.157H86.828z"/>
	<path fill="#004D43" d="M88.36,23.072v-0.085h0.16c0.181,0,0.308-0.042,0.384-0.127c0.046-0.051,0.068-0.165,0.068-0.341v-2.02
		c0-0.195-0.028-0.317-0.087-0.366c-0.082-0.068-0.204-0.102-0.365-0.102h-0.16v-0.085h1.735c0.636,0,1.121,0.053,1.453,0.159
		c0.332,0.106,0.599,0.283,0.801,0.531c0.203,0.248,0.304,0.533,0.304,0.857c0,0.436-0.181,0.799-0.541,1.091
		c-0.404,0.327-1.02,0.489-1.848,0.489H88.36z M89.575,22.846c0.266,0.043,0.49,0.065,0.67,0.065c0.486,0,0.889-0.126,1.21-0.376
		c0.32-0.25,0.48-0.591,0.48-1.019c0-0.432-0.16-0.773-0.48-1.021c-0.321-0.25-0.732-0.374-1.235-0.374
		c-0.189,0-0.403,0.022-0.645,0.067V22.846z"/>
	<path fill="#004D43" d="M107.917,20.43l1.45-0.586h0.145v4.166c0,0.277,0.014,0.449,0.042,0.517
		c0.028,0.068,0.086,0.12,0.174,0.157c0.088,0.037,0.267,0.057,0.536,0.062v0.135h-2.242v-0.135
		c0.281-0.005,0.463-0.024,0.545-0.061c0.082-0.035,0.139-0.082,0.171-0.142c0.032-0.059,0.048-0.236,0.048-0.533v-2.664
		c0-0.358-0.015-0.589-0.044-0.691c-0.021-0.077-0.058-0.135-0.112-0.171c-0.054-0.037-0.12-0.055-0.196-0.055
		c-0.108,0-0.259,0.037-0.452,0.113L107.917,20.43z"/>
	<path fill="#004D43" d="M112.333,22.394c-0.488-0.32-0.803-0.577-0.944-0.771c-0.141-0.194-0.211-0.396-0.211-0.604
		c0-0.32,0.155-0.596,0.464-0.828c0.309-0.231,0.72-0.347,1.232-0.347c0.497,0,0.898,0.108,1.201,0.324
		c0.303,0.216,0.455,0.463,0.455,0.739c0,0.185-0.082,0.373-0.246,0.563c-0.164,0.192-0.505,0.417-1.023,0.677
		c0.533,0.33,0.887,0.59,1.06,0.779c0.23,0.248,0.346,0.508,0.346,0.782c0,0.347-0.166,0.644-0.496,0.89
		c-0.331,0.245-0.765,0.369-1.301,0.369c-0.585,0-1.042-0.147-1.37-0.44c-0.261-0.235-0.391-0.493-0.391-0.772
		c0-0.218,0.092-0.434,0.275-0.649C111.569,22.892,111.885,22.654,112.333,22.394z M112.548,22.533
		c-0.252,0.17-0.438,0.354-0.56,0.554c-0.122,0.2-0.183,0.417-0.183,0.65c0,0.312,0.107,0.563,0.321,0.751
		c0.214,0.188,0.486,0.282,0.816,0.282c0.328,0,0.59-0.075,0.788-0.222c0.197-0.148,0.295-0.328,0.295-0.539
		c0-0.174-0.058-0.331-0.172-0.469C113.638,23.283,113.202,22.948,112.548,22.533z M113.048,22.005
		c0.364-0.262,0.594-0.469,0.691-0.621c0.097-0.152,0.146-0.323,0.146-0.515c0-0.254-0.09-0.454-0.269-0.599
		c-0.179-0.144-0.423-0.216-0.732-0.216s-0.562,0.071-0.755,0.214c-0.194,0.144-0.291,0.311-0.291,0.502
		c0,0.126,0.04,0.253,0.121,0.378c0.081,0.127,0.195,0.247,0.343,0.36L113.048,22.005z"/>
	<path fill="#004D43" d="M118.609,19.945l-0.362,0.726h-1.89l-0.412,0.775c0.818,0.111,1.467,0.391,1.945,0.841
		c0.411,0.386,0.617,0.841,0.617,1.364c0,0.304-0.067,0.585-0.202,0.844c-0.135,0.259-0.304,0.479-0.507,0.662
		c-0.204,0.182-0.432,0.329-0.682,0.439c-0.355,0.157-0.72,0.235-1.093,0.235c-0.377,0-0.651-0.059-0.823-0.177
		c-0.171-0.118-0.257-0.248-0.257-0.39c0-0.08,0.036-0.15,0.106-0.211c0.071-0.061,0.161-0.092,0.269-0.092
		c0.08,0,0.15,0.011,0.21,0.034c0.06,0.022,0.163,0.081,0.308,0.175c0.232,0.148,0.466,0.222,0.705,0.222
		c0.362,0,0.679-0.126,0.953-0.377c0.273-0.251,0.41-0.558,0.41-0.919c0-0.35-0.122-0.677-0.366-0.979
		c-0.244-0.303-0.581-0.537-1.01-0.702c-0.337-0.127-0.795-0.202-1.376-0.222l1.205-2.248H118.609z"/>
	<path fill="#004D43" d="M122.762,19.844v0.135c-0.387,0.031-0.702,0.095-0.947,0.191c-0.244,0.096-0.486,0.242-0.725,0.438
		c-0.238,0.197-0.437,0.416-0.593,0.657c-0.157,0.241-0.288,0.528-0.394,0.86c0.422-0.24,0.846-0.361,1.271-0.361
		c0.407,0,0.76,0.136,1.059,0.408c0.299,0.272,0.448,0.621,0.448,1.048c0,0.412-0.151,0.788-0.453,1.128
		c-0.363,0.413-0.844,0.619-1.441,0.619c-0.408,0-0.753-0.112-1.037-0.335c-0.557-0.434-0.834-0.997-0.834-1.688
		c0-0.441,0.106-0.86,0.32-1.259c0.214-0.397,0.52-0.751,0.917-1.059c0.397-0.308,0.776-0.516,1.14-0.622s0.702-0.16,1.015-0.16
		H122.762z M120.028,22.39c-0.053,0.329-0.079,0.593-0.079,0.794c0,0.233,0.052,0.485,0.156,0.758
		c0.104,0.273,0.258,0.489,0.463,0.65c0.149,0.114,0.331,0.171,0.545,0.171c0.255,0,0.482-0.1,0.683-0.298s0.302-0.483,0.302-0.851
		c0-0.416-0.1-0.774-0.299-1.078c-0.199-0.302-0.482-0.455-0.848-0.455c-0.111,0-0.231,0.019-0.358,0.058
		S120.277,22.262,120.028,22.39z"/>
	<path fill="#141006" d="M5.503,9.886L1.916,1.757v6.456c0,0.594,0.062,0.965,0.185,1.112C2.27,9.523,2.537,9.623,2.902,9.623h0.329
		v0.263H0V9.623h0.328C0.721,9.623,1,9.5,1.164,9.253c0.101-0.152,0.15-0.499,0.15-1.041V1.9c0-0.427-0.046-0.736-0.136-0.926
		C1.114,0.836,0.996,0.721,0.825,0.628S0.379,0.489,0,0.489V0.226h2.628l3.367,7.56l3.312-7.56h2.629v0.264h-0.322
		c-0.396,0-0.678,0.124-0.842,0.37c-0.1,0.152-0.15,0.499-0.15,1.041v6.312c0,0.594,0.064,0.965,0.192,1.112
		c0.168,0.199,0.436,0.299,0.8,0.299h0.322v0.263H7.994V9.623h0.328c0.397,0,0.676-0.124,0.835-0.37
		c0.101-0.152,0.15-0.499,0.15-1.041V1.757L5.729,9.886H5.503z"/>
	<path fill="#141006" d="M18.883,6.652h-3.46l-0.607,1.524c-0.149,0.375-0.224,0.655-0.224,0.841c0,0.147,0.065,0.276,0.195,0.388
		c0.129,0.112,0.409,0.184,0.84,0.217v0.263h-2.815V9.623c0.373-0.072,0.615-0.164,0.725-0.278c0.224-0.228,0.472-0.69,0.745-1.389
		l3.144-7.952h0.231l3.111,8.037c0.251,0.646,0.478,1.065,0.682,1.258c0.205,0.192,0.489,0.301,0.854,0.324v0.263h-3.527V9.623
		c0.356-0.019,0.597-0.083,0.722-0.192c0.125-0.109,0.188-0.242,0.188-0.399c0-0.209-0.087-0.539-0.264-0.991L18.883,6.652z
		 M18.699,6.125L17.183,2.22l-1.556,3.905H18.699z"/>
	<path fill="#141006" d="M32.834,9.886h-2.601L26.936,5.37c-0.243,0.01-0.442,0.014-0.596,0.014c-0.062,0-0.129-0.001-0.201-0.003
		c-0.072-0.003-0.146-0.006-0.223-0.011v2.807c0,0.607,0.067,0.986,0.201,1.133c0.182,0.208,0.455,0.313,0.818,0.313h0.381v0.263
		h-4.174V9.623h0.366c0.412,0,0.707-0.133,0.884-0.399c0.101-0.147,0.15-0.497,0.15-1.047V1.935c0-0.607-0.067-0.985-0.201-1.133
		c-0.187-0.208-0.464-0.313-0.833-0.313h-0.366V0.226h3.549c1.034,0,1.797,0.075,2.288,0.224c0.491,0.15,0.907,0.426,1.25,0.827
		c0.343,0.401,0.514,0.879,0.514,1.436c0,0.594-0.195,1.109-0.586,1.545c-0.39,0.438-0.995,0.748-1.813,0.927l2.012,2.772
		c0.46,0.636,0.854,1.058,1.185,1.268c0.331,0.209,0.762,0.342,1.294,0.399V9.886z M25.916,4.92c0.091,0,0.17,0.001,0.237,0.004
		c0.067,0.002,0.122,0.003,0.165,0.003c0.929,0,1.629-0.199,2.101-0.598c0.472-0.399,0.708-0.907,0.708-1.525
		c0-0.603-0.19-1.094-0.571-1.471c-0.381-0.377-0.886-0.566-1.513-0.566c-0.278,0-0.654,0.046-1.128,0.136V4.92z"/>
	<path fill="#141006" d="M41.748,0.004l0.224,3.284h-0.224c-0.296-0.983-0.72-1.69-1.271-2.123c-0.55-0.432-1.211-0.648-1.982-0.648
		c-0.647,0-1.23,0.163-1.752,0.488c-0.522,0.326-0.933,0.844-1.232,1.557c-0.3,0.713-0.449,1.599-0.449,2.658
		c0,0.874,0.141,1.631,0.424,2.273c0.282,0.641,0.707,1.133,1.275,1.474c0.568,0.342,1.215,0.513,1.943,0.513
		c0.632,0,1.19-0.134,1.673-0.403c0.484-0.268,1.016-0.801,1.596-1.599l0.222,0.143c-0.488,0.859-1.059,1.489-1.71,1.888
		c-0.651,0.399-1.424,0.599-2.32,0.599c-1.615,0-2.864-0.594-3.75-1.781c-0.661-0.883-0.992-1.924-0.992-3.121
		c0-0.964,0.218-1.85,0.654-2.657c0.436-0.807,1.035-1.433,1.799-1.877c0.764-0.444,1.599-0.667,2.503-0.667
		c0.704,0,1.399,0.172,2.084,0.513c0.201,0.104,0.344,0.156,0.43,0.156c0.13,0,0.242-0.044,0.338-0.136
		c0.125-0.127,0.213-0.306,0.265-0.534H41.748z"/>
	<path fill="#141006" d="M48.955,0c1.327,0,2.476,0.477,3.448,1.429c0.972,0.952,1.458,2.141,1.458,3.566
		c0,1.467-0.49,2.686-1.47,3.655c-0.98,0.969-2.166,1.453-3.558,1.453c-1.407,0-2.589-0.473-3.547-1.417
		c-0.958-0.946-1.436-2.169-1.436-3.669c0-1.535,0.553-2.786,1.658-3.755C46.469,0.421,47.618,0,48.955,0z M48.811,0.521
		c-0.914,0-1.648,0.32-2.201,0.962c-0.688,0.798-1.033,1.966-1.033,3.505c0,1.578,0.356,2.791,1.071,3.641
		c0.547,0.645,1.271,0.969,2.171,0.969c0.959,0,1.752-0.354,2.377-1.062c0.626-0.707,0.939-1.824,0.939-3.348
		c0-1.654-0.345-2.887-1.033-3.699C50.549,0.844,49.785,0.521,48.811,0.521z"/>
	<path fill="#141006" d="M61.726,5.362v2.815c0,0.607,0.067,0.986,0.201,1.133c0.182,0.208,0.458,0.313,0.826,0.313h0.374v0.263
		h-4.174V9.623h0.366c0.412,0,0.707-0.133,0.884-0.399c0.096-0.147,0.143-0.497,0.143-1.047V1.935c0-0.607-0.064-0.985-0.193-1.133
		c-0.187-0.208-0.465-0.313-0.833-0.313h-0.366V0.226h3.57c0.872,0,1.559,0.088,2.062,0.266c0.502,0.179,0.927,0.479,1.271,0.902
		c0.345,0.423,0.517,0.924,0.517,1.504c0,0.788-0.262,1.429-0.786,1.923c-0.525,0.493-1.266,0.741-2.223,0.741
		c-0.235,0-0.489-0.017-0.762-0.05C62.329,5.479,62.037,5.429,61.726,5.362z M61.726,4.956c0.254,0.048,0.479,0.083,0.676,0.107
		s0.364,0.036,0.502,0.036c0.498,0,0.928-0.191,1.29-0.574c0.362-0.382,0.542-0.877,0.542-1.486c0-0.417-0.087-0.806-0.259-1.165
		c-0.172-0.358-0.416-0.627-0.732-0.805c-0.316-0.178-0.675-0.268-1.078-0.268c-0.244,0-0.558,0.046-0.941,0.136V4.956z"/>
	<path fill="#141006" d="M71.187,9.623v0.263h-4.174V9.623h0.345c0.402,0,0.694-0.117,0.876-0.35
		c0.115-0.151,0.172-0.518,0.172-1.097V1.935c0-0.489-0.031-0.812-0.093-0.969c-0.048-0.118-0.146-0.221-0.295-0.306
		c-0.21-0.114-0.431-0.171-0.661-0.171h-0.345V0.226h4.174v0.264h-0.352c-0.397,0-0.688,0.116-0.869,0.349
		c-0.12,0.151-0.18,0.518-0.18,1.097v6.242c0,0.49,0.032,0.812,0.094,0.969c0.048,0.118,0.148,0.221,0.302,0.306
		c0.206,0.115,0.424,0.171,0.654,0.171H71.187z"/>
	<path fill="#141006" d="M74.223,0.752v3.819h2.141c0.556,0,0.927-0.084,1.114-0.249c0.25-0.22,0.388-0.604,0.417-1.155h0.266v3.363
		h-0.266c-0.067-0.471-0.134-0.772-0.201-0.906c-0.087-0.166-0.228-0.296-0.424-0.391s-0.498-0.143-0.906-0.143h-2.141v3.185
		c0,0.427,0.02,0.688,0.058,0.78c0.039,0.093,0.105,0.167,0.201,0.221c0.096,0.055,0.278,0.083,0.546,0.083h1.652
		c0.551,0,0.951-0.038,1.2-0.115c0.249-0.076,0.488-0.226,0.718-0.448c0.297-0.295,0.601-0.739,0.912-1.333h0.288l-0.84,2.422H71.45
		V9.623h0.344c0.23,0,0.449-0.055,0.654-0.164c0.153-0.076,0.258-0.19,0.313-0.341c0.055-0.153,0.083-0.463,0.083-0.934V1.906
		c0-0.612-0.062-0.99-0.187-1.132c-0.172-0.189-0.46-0.285-0.862-0.285H71.45V0.226h7.507l0.107,2.115h-0.28
		c-0.1-0.508-0.211-0.857-0.334-1.047c-0.122-0.19-0.302-0.335-0.542-0.435c-0.192-0.072-0.53-0.107-1.014-0.107H74.223z"/>
	<path fill="#141006" d="M89.928,9.886h-2.601L84.03,5.37c-0.244,0.01-0.443,0.014-0.597,0.014c-0.062,0-0.129-0.001-0.201-0.003
		c-0.072-0.003-0.146-0.006-0.223-0.011v2.807c0,0.607,0.067,0.986,0.201,1.133c0.182,0.208,0.455,0.313,0.819,0.313h0.381v0.263
		h-4.175V9.623h0.367c0.412,0,0.707-0.133,0.884-0.399c0.1-0.147,0.15-0.497,0.15-1.047V1.935c0-0.607-0.067-0.985-0.201-1.133
		c-0.187-0.208-0.464-0.313-0.833-0.313h-0.367V0.226h3.55c1.034,0,1.796,0.075,2.288,0.224c0.491,0.15,0.908,0.426,1.25,0.827
		c0.343,0.401,0.514,0.879,0.514,1.436c0,0.594-0.195,1.109-0.585,1.545c-0.39,0.438-0.995,0.748-1.814,0.927l2.012,2.772
		c0.46,0.636,0.854,1.058,1.186,1.268c0.33,0.209,0.762,0.342,1.293,0.399V9.886z M83.01,4.92c0.091,0,0.17,0.001,0.237,0.004
		c0.067,0.002,0.122,0.003,0.165,0.003c0.929,0,1.629-0.199,2.101-0.598c0.472-0.399,0.708-0.907,0.708-1.525
		c0-0.603-0.19-1.094-0.571-1.471c-0.38-0.377-0.885-0.566-1.512-0.566c-0.278,0-0.654,0.046-1.128,0.136V4.92z"/>
	<path fill="#141006" d="M99.762,9.886h-2.6L93.864,5.37c-0.243,0.01-0.443,0.014-0.597,0.014c-0.062,0-0.129-0.001-0.201-0.003
		c-0.072-0.003-0.146-0.006-0.223-0.011v2.807c0,0.607,0.067,0.986,0.202,1.133c0.181,0.208,0.455,0.313,0.818,0.313h0.381v0.263
		h-4.174V9.623h0.366c0.412,0,0.706-0.133,0.884-0.399c0.1-0.147,0.15-0.497,0.15-1.047V1.935c0-0.607-0.067-0.985-0.201-1.133
		c-0.187-0.208-0.464-0.313-0.833-0.313h-0.366V0.226h3.55c1.034,0,1.796,0.075,2.287,0.224c0.491,0.15,0.907,0.426,1.25,0.827
		c0.342,0.401,0.513,0.879,0.513,1.436c0,0.594-0.195,1.109-0.585,1.545c-0.391,0.438-0.995,0.748-1.814,0.927l2.012,2.772
		c0.459,0.636,0.854,1.058,1.185,1.268c0.331,0.209,0.762,0.342,1.293,0.399V9.886z M92.844,4.92c0.091,0,0.17,0.001,0.237,0.004
		c0.067,0.002,0.122,0.003,0.165,0.003c0.929,0,1.629-0.199,2.101-0.598c0.472-0.399,0.708-0.907,0.708-1.525
		c0-0.603-0.19-1.094-0.572-1.471c-0.38-0.377-0.885-0.566-1.511-0.566c-0.278,0-0.654,0.046-1.128,0.136V4.92z"/>
	<path fill="#141006" d="M102.644,0.752v3.819h2.141c0.555,0,0.927-0.084,1.113-0.249c0.249-0.22,0.387-0.604,0.417-1.155h0.267
		v3.363h-0.267c-0.067-0.471-0.134-0.772-0.201-0.906c-0.087-0.166-0.228-0.296-0.424-0.391c-0.197-0.095-0.499-0.143-0.905-0.143
		h-2.141v3.185c0,0.427,0.019,0.688,0.058,0.78s0.105,0.167,0.201,0.221c0.096,0.055,0.278,0.083,0.546,0.083h1.652
		c0.55,0,0.95-0.038,1.199-0.115c0.249-0.076,0.489-0.226,0.718-0.448c0.298-0.295,0.602-0.739,0.913-1.333h0.287l-0.84,2.422
		h-7.507V9.623h0.345c0.229,0,0.448-0.055,0.654-0.164c0.153-0.076,0.258-0.19,0.312-0.341c0.055-0.153,0.083-0.463,0.083-0.934
		V1.906c0-0.612-0.062-0.99-0.187-1.132c-0.172-0.189-0.459-0.285-0.862-0.285h-0.345V0.226h7.507l0.107,2.115h-0.279
		c-0.101-0.508-0.212-0.857-0.334-1.047c-0.122-0.19-0.303-0.335-0.542-0.435c-0.191-0.072-0.529-0.107-1.013-0.107H102.644z"/>
	<path fill="#141006" d="M124.783,0.226v0.264c-0.259,0-0.469,0.044-0.631,0.135c-0.161,0.091-0.315,0.259-0.462,0.506
		c-0.097,0.167-0.251,0.562-0.461,1.19l-2.772,7.787h-0.293l-2.266-6.177l-2.25,6.177h-0.265l-2.954-8.022
		c-0.22-0.599-0.36-0.952-0.418-1.062c-0.098-0.18-0.231-0.315-0.399-0.402c-0.169-0.088-0.397-0.132-0.686-0.132V0.226h3.681v0.264
		h-0.176c-0.259,0-0.457,0.057-0.594,0.171c-0.137,0.114-0.205,0.251-0.205,0.414c0,0.166,0.107,0.548,0.322,1.146l1.958,5.422
		l1.649-4.61l-0.293-0.812l-0.234-0.648c-0.103-0.237-0.218-0.446-0.344-0.627c-0.064-0.09-0.142-0.166-0.235-0.228
		c-0.122-0.085-0.244-0.147-0.367-0.186c-0.093-0.028-0.239-0.042-0.439-0.042V0.226h3.872v0.264h-0.265
		c-0.273,0-0.474,0.057-0.601,0.171c-0.127,0.114-0.191,0.269-0.191,0.463c0,0.242,0.111,0.665,0.33,1.267l1.907,5.252l1.891-5.322
		c0.215-0.588,0.323-0.998,0.323-1.226c0-0.11-0.036-0.211-0.106-0.307c-0.071-0.094-0.16-0.161-0.268-0.199
		c-0.186-0.066-0.427-0.1-0.726-0.1V0.226H124.783z"/>
	<path fill="#141006" d="M128.411,4.707h4.639V1.942c0-0.494-0.032-0.819-0.096-0.976c-0.049-0.118-0.152-0.221-0.309-0.306
		c-0.211-0.114-0.434-0.171-0.67-0.171h-0.353V0.226h4.271v0.264h-0.353c-0.236,0-0.459,0.054-0.67,0.164
		c-0.157,0.076-0.264,0.191-0.32,0.346s-0.084,0.469-0.084,0.944v6.234c0,0.49,0.031,0.812,0.095,0.969
		c0.049,0.118,0.149,0.221,0.302,0.306c0.216,0.115,0.441,0.171,0.678,0.171h0.353v0.263h-4.271V9.623h0.353
		c0.408,0,0.705-0.117,0.891-0.35c0.123-0.151,0.185-0.518,0.185-1.097V5.234h-4.639v2.942c0,0.49,0.032,0.812,0.096,0.969
		c0.049,0.118,0.152,0.221,0.31,0.306c0.21,0.115,0.435,0.171,0.67,0.171h0.361v0.263h-4.278V9.623h0.353
		c0.413,0,0.712-0.117,0.898-0.35c0.117-0.151,0.177-0.518,0.177-1.097V1.942c0-0.494-0.032-0.819-0.096-0.976
		c-0.048-0.118-0.149-0.221-0.301-0.306c-0.216-0.114-0.442-0.171-0.678-0.171h-0.353V0.226h4.278v0.264h-0.361
		c-0.236,0-0.46,0.054-0.67,0.164c-0.152,0.076-0.257,0.191-0.317,0.346c-0.059,0.154-0.088,0.469-0.088,0.944V4.707z"/>
	<path fill="#141006" d="M140.785,9.623v0.263h-4.175V9.623h0.346c0.401,0,0.694-0.117,0.875-0.35
		c0.115-0.151,0.172-0.518,0.172-1.097V1.935c0-0.489-0.032-0.812-0.094-0.969c-0.047-0.118-0.146-0.221-0.294-0.306
		c-0.21-0.114-0.431-0.171-0.66-0.171h-0.346V0.226h4.175v0.264h-0.352c-0.398,0-0.688,0.116-0.87,0.349
		c-0.121,0.151-0.18,0.518-0.18,1.097v6.242c0,0.49,0.031,0.812,0.093,0.969c0.049,0.118,0.15,0.221,0.303,0.306
		c0.205,0.115,0.424,0.171,0.654,0.171H140.785z"/>
	<path fill="#141006" d="M149.455,0.226l0.108,2.266h-0.272c-0.053-0.399-0.125-0.684-0.216-0.855
		c-0.149-0.275-0.346-0.479-0.593-0.609c-0.247-0.132-0.572-0.196-0.973-0.196h-1.372v7.381c0,0.594,0.064,0.965,0.193,1.112
		c0.182,0.199,0.463,0.299,0.841,0.299h0.338v0.263h-4.131V9.623h0.344c0.412,0,0.704-0.124,0.877-0.37
		c0.105-0.152,0.158-0.499,0.158-1.041V0.831h-1.171c-0.455,0-0.778,0.034-0.969,0.1c-0.25,0.09-0.462,0.264-0.64,0.52
		c-0.178,0.256-0.282,0.604-0.317,1.041h-0.272l0.115-2.266H149.455z"/>
	<path fill="#141006" d="M153.206,0.752v3.819h2.14c0.556,0,0.928-0.084,1.114-0.249c0.25-0.22,0.387-0.604,0.417-1.155h0.266v3.363
		h-0.266c-0.068-0.471-0.135-0.772-0.202-0.906c-0.087-0.166-0.228-0.296-0.424-0.391s-0.498-0.143-0.906-0.143h-2.14v3.185
		c0,0.427,0.019,0.688,0.057,0.78s0.105,0.167,0.202,0.221c0.096,0.055,0.278,0.083,0.546,0.083h1.652c0.55,0,0.95-0.038,1.2-0.115
		c0.25-0.076,0.488-0.226,0.718-0.448c0.297-0.295,0.601-0.739,0.913-1.333h0.287l-0.84,2.422h-7.507V9.623h0.345
		c0.23,0,0.448-0.055,0.654-0.164c0.153-0.076,0.258-0.19,0.312-0.341c0.055-0.153,0.083-0.463,0.083-0.934V1.906
		c0-0.612-0.062-0.99-0.188-1.132c-0.172-0.189-0.459-0.285-0.862-0.285h-0.345V0.226h7.507l0.108,2.115h-0.28
		c-0.101-0.508-0.211-0.857-0.334-1.047c-0.122-0.19-0.303-0.335-0.542-0.435c-0.192-0.072-0.53-0.107-1.014-0.107H153.206z"/>
	<path fill="#004D43" d="M0,18.131c0,0,2.599,0.42,6.874,0.42s6.371-0.209,6.371-0.209v1.646c0,0-1.362,0.405-1.99,1.086
		c-0.592,0.643-1.025,1.192-0.447,3.592c0.639,2.651,5.37,22.05,5.37,22.05l5.826-15.592l-2.514-8.55c0,0-0.557-1.884-1.846-2.259
		c-0.571-0.166-1.255-0.298-1.255-0.298v-1.718c0,0,4.462,0.191,6.476,0.146c2.011-0.044,5.805-0.146,5.805-0.146v1.509
		c0,0-1.832,0.197-2.347,0.943c-0.562,0.814-0.377,1.865-0.125,2.997c0.251,1.132,5.533,23.01,5.533,23.01l5.365-20.16
		c0,0,1.068-3.814,0-5.366c-0.795-1.153-2.557-1.257-2.892-1.257s-0.335,0-0.335,0v-1.845c0,0,3.479,0.294,5.91,0.252
		c2.431-0.042,5.449-0.461,5.449-0.461v1.718c0,0-1.788,0.441-2.812,1.457c-0.683,0.677-1.404,1.979-1.799,3.406
		c-0.36,1.304-9.975,37.177-9.975,37.177h-0.796L23.01,35.986l-8.479,25.693h-0.909L6.245,29.657c0,0-2.054-7.795-3.353-8.843
		C1.593,19.766,0,19.892,0,19.892V18.131z"/>
	<path fill="#004D43" d="M78.756,55.812c-0.21,0-0.419,0.419-1.048,1.216c-0.628,0.797-2.09,2.431-3.311,2.849
		c-1.954,0.67-3.78,0.292-5.313-2.711c-1.708-3.347-1.98-8.018-1.98-8.018s3.755-1.09,5.197-1.97
		c1.252-0.763,6.916-3.855,6.916-9.473s-2.85-6.748-4.108-6.748c-1.551,0-5.826,0.556-9.441,6.214S62.2,49.042,62.273,50.939
		c0.062,1.603,0.754,4.559,0.754,4.559s-1.084,2.247-2.641,2.672c-1.089,0.296-0.779-4.382-0.779-4.382s0.43-12.69,0.491-15.763
		c0.062-3.073-0.707-4.578-1.72-5.408c-1.014-0.83-3.811,0-5.715,1.383c-1.905,1.383-4.547,4.701-4.547,4.701l0.153-11.369
		c0,0,0.184-8.511-0.215-8.48c-0.399,0.031-1.813,1.475-4.24,4.364c-2.427,2.888-2.95,4.178-2.95,4.178l2.766-0.707l-1.229,35.027
		l5.421-0.035c0,0-0.125-1.676-0.209-10.395c-0.084-8.718,1.096-11.4,2.179-12.741c0.91-1.126,3.369-2.958,4.695-2.138
		c1.278,0.79,1.006,4.317,1.006,4.317L55.033,56.65c0,3.436,0.083,5.741,2.975,5.28c2.892-0.461,5.449-5.155,5.449-5.155
		s1.389,2.267,1.955,2.82c0.474,0.465,1.901,2.335,5.967,2.335c4.065,0,6.538-3.102,7.292-3.982
		C79.426,57.069,78.965,55.812,78.756,55.812z M68.605,36.806c1.943-2.522,4.687-2.366,5.727-1.432
		c1.329,1.193,1.375,3.375,0.823,5.048c-0.658,1.994-2.244,3.127-3.891,4.122c-1.977,1.193-4.534,1.5-4.534,1.5
		S66.791,39.161,68.605,36.806z"/>
	<path fill="#004D43" d="M95.431,55.812c-0.209,0-0.419,0.419-1.048,1.216c-0.628,0.797-2.09,2.431-3.311,2.849
		c-1.954,0.67-3.78,0.292-5.313-2.711c-1.708-3.347-1.98-8.018-1.98-8.018s3.755-1.09,5.197-1.97
		c1.252-0.763,6.916-3.855,6.916-9.473s-2.85-6.748-4.107-6.748c-1.551,0-5.826,0.556-9.441,6.214s-3.499,11.873-3.395,13.769
		c0.135,2.471,1.201,6.528,3.093,8.705c0.389,0.447,1.947,2.287,6.013,2.287c4.065,0,6.538-3.102,7.292-3.982
		C96.102,57.069,95.641,55.812,95.431,55.812z M85.281,36.806c1.943-2.522,4.687-2.366,5.727-1.432
		c1.329,1.193,1.375,3.375,0.823,5.048c-0.658,1.994-2.244,3.127-3.891,4.122c-1.977,1.193-4.533,1.5-4.533,1.5
		S83.466,39.161,85.281,36.806z"/>
	<path fill="#004D43" d="M122.973,55.812c-0.209,0-0.419,0.419-1.048,1.216c-0.629,0.797-2.09,2.431-3.311,2.849
		c-1.953,0.67-3.78,0.292-5.313-2.711c-1.708-3.347-1.98-8.018-1.98-8.018s3.755-1.09,5.197-1.97
		c1.252-0.763,6.916-3.855,6.916-9.473s-2.851-6.748-4.108-6.748c-1.551,0-5.826,0.556-9.441,6.214
		c-3.615,5.658-3.498,11.873-3.395,13.769c0.134,2.471,1.201,6.528,3.093,8.705c0.389,0.447,1.947,2.287,6.012,2.287
		c4.066,0,6.539-3.102,7.293-3.982C123.644,57.069,123.183,55.812,122.973,55.812z M112.823,36.806
		c1.943-2.522,4.687-2.366,5.727-1.432c1.33,1.193,1.375,3.375,0.824,5.048c-0.659,1.994-2.245,3.127-3.892,4.122
		c-1.977,1.193-4.533,1.5-4.533,1.5S111.009,39.161,112.823,36.806z"/>
	<path fill="#004D43" d="M106.718,18.851h-1.414c0,0-3.493,1.371-5.238,2.119c-1.746,0.749-5.987,1.83-5.987,1.83v0.998
		c0,0,3.409-0.416,4.407,0.499c0.998,0.915,1.247,2.246,1.247,3.742S99.4,55.396,99.4,55.396s0.083,2.827-0.499,3.576
		c-0.582,0.749-2.008,1.245-2.593,1.346c-0.585,0.103-1.856,0.204-1.856,0.204v1.145c0,0,5.731-0.305,7.461-0.305
		s7.365,0.305,7.365,0.305V60.42c0,0-2.721,0.203-3.891-1.247c-1.17-1.449-0.839-8.163-0.865-9.384
		c-0.025-1.22,0.203-14.34,0.345-19.754C105.041,23.394,106.718,18.851,106.718,18.851z"/>
	<path fill="#004D43" d="M127.584,38.036v16.189c0,0-0.127,4.398-0.765,4.972c-0.638,0.574-2.486,0.829-2.486,0.829v1.657
		c0,0,4.143-0.446,5.354-0.383c1.211,0.064,5.035,0.365,5.035,0.365v-2.277c0,0-1.721,0.446-2.294-1.211
		c-0.574-1.657-0.765-5.291-0.638-10.326c0.127-5.036,0.51-8.923,2.04-10.708c1.53-1.785,2.359-1.275,2.678-0.766
		c0.318,0.51,0.25,1.741,2.612,1.722c2.486-0.021,2.678-2.623,2.678-3.352c0-0.728-1.148-2.768-3.251-2.768
		s-4.079,1.648-4.844,2.768c-0.765,1.12-1.467,2.204-1.467,2.204s-0.088-2.34-0.191-3.825c-0.099-1.443-0.355-2.61-0.953-2.61
		c-0.399,0-1.668,0.667-2.863,1.834c-1.196,1.167-3.447,3.586-3.686,4.23c-0.169,0.454,0,0.883,0,0.883s1.951-0.703,2.548-0.625
		C127.732,36.925,127.584,38.036,127.584,38.036z"/>
	<path fill="#004D43" d="M158.729,38.108h-1.264c0,0-0.841-2.808-2.737-4.072c-1.895-1.263-3.861-2.457-5.615-0.913
		c-1.755,1.544-3.018,5.756,0.28,7.933c3.299,2.175,10.107,4.983,10.107,11.511c0,6.809-5.895,9.098-9.125,9.098
		c-3.859,0-7.511-2.079-7.511-2.079s0.28-0.913,0-3.509c-0.281-2.597-0.632-3.931-0.632-3.931l1.124,0.14c0,0,2.115,7.09,7.51,7.09
		c5.396,0,4.984-3.58,4.984-5.124s-0.842-4.071-5.545-6.879c-4.703-2.808-6.669-4.492-6.669-8.702c0-4.986,4.703-7.303,6.739-7.715
		c2.877-0.583,7.229,0.343,7.229,0.343L158.729,38.108z"/>
	<circle fill="#004D43" cx="89.338" cy="24.502" r="0.691"/>
</g>
</svg>
